<svg width="204" height="200" viewBox="0 0 204 200" fill="none" xmlns="http://www.w3.org/2000/svg">
<path d="M126.238 7.5995L125.807 9.66777L122.172 8.92379L119.864 19.8443L117.22 19.2968L119.528 8.37632L115.917 7.63367L116.348 5.5654L126.238 7.5995Z" fill="#242F65"/>
<path d="M144.527 14.2431L139.248 26.4481L136.749 25.4159L139.043 20.1164L133.744 17.894L131.428 23.1687L128.953 22.1377L134.232 9.93271L136.707 10.9637L134.578 15.8964L139.877 18.1188L142.006 13.1861L144.527 14.2431Z" fill="#242F65"/>
<path d="M153.374 32.0751L148.961 29.0091L146.619 30.6406L144.297 29.0307L156.066 21.1583L158.572 22.8959L154.892 36.3893L152.57 34.7794L153.374 32.0751ZM153.972 30.0172L155.642 24.3302L150.731 27.7686L153.972 30.0172Z" fill="#242F65"/>
<path d="M166.843 48.3245L165.019 46.3671L167.71 35.9233L160.944 42.0056L159.12 40.0482L169.067 31.1131L170.89 33.0705L168.148 43.5819L174.964 37.4555L176.788 39.4129L166.843 48.3245Z" fill="#242F65"/>
<path d="M179.388 54.5695L176.393 62.8343L174.736 60.0644L177.507 52.7736L172.182 55.8588L170.808 53.5744L182.422 46.8472L183.796 49.1315L178.572 52.1519L186.325 53.3592L187.983 56.1057L179.388 54.5695Z" fill="#242F65"/>
<path d="M183.334 75.4507C182.672 75.3199 182.068 75.0045 181.499 74.5032C180.93 74.0019 180.492 73.2966 180.186 72.3873C179.855 71.5001 179.736 70.6716 179.784 69.8525C179.831 69.0334 180.087 68.3432 180.506 67.7326C180.924 67.1219 181.527 66.6389 182.264 66.3043L183.234 68.9647C182.742 69.1955 182.386 69.5514 182.166 70.0322C181.947 70.5131 181.941 71.0293 182.147 71.6043C182.331 72.1311 182.622 72.476 182.994 72.6611C183.366 72.8462 183.797 72.8467 184.236 72.7068C184.628 72.5643 184.927 72.3462 185.09 72.0265C185.276 71.7082 185.368 71.3611 185.415 70.9646C185.438 70.5667 185.47 70.0284 185.436 69.3691C185.415 68.4992 185.458 67.7737 185.54 67.1912C185.621 66.6088 185.845 66.0577 186.21 65.538C186.576 65.0184 187.149 64.6277 187.956 64.3439C189.055 63.959 190.054 64.0616 190.956 64.605C191.858 65.1483 192.545 66.0788 193.022 67.3498C193.495 68.6676 193.548 69.821 193.201 70.8348C192.855 71.8487 192.142 72.5838 191.085 73.0649L190.116 70.3812C190.537 70.1464 190.866 69.836 191.034 69.4227C191.225 69.0107 191.205 68.54 191.02 68.0131C190.856 67.5578 190.588 67.2142 190.24 67.0305C189.893 66.8233 189.486 66.8241 189.022 66.9861C188.656 67.1066 188.38 67.326 188.218 67.6457C188.057 67.9419 187.941 68.2877 187.918 68.6855C187.894 69.0834 187.864 69.5983 187.899 70.2342C187.895 71.1262 187.875 71.8764 187.792 72.4823C187.734 73.0661 187.509 73.6405 187.119 74.1589C186.754 74.6786 186.155 75.0913 185.325 75.3738C184.646 75.5238 183.997 75.5815 183.334 75.4507Z" fill="#242F65"/>
<path d="M198.669 98.3578L196.53 98.4735L196.231 92.9237L192.625 93.1222L192.869 97.567L190.801 97.6867L190.558 93.2419L184.884 93.56L184.726 90.9253L198.212 90.1966L198.669 98.3578Z" fill="#242F65"/>
<path d="M196.343 116.471C195.597 117.368 194.673 118.022 193.525 118.427C192.377 118.833 191.175 118.93 189.87 118.74C188.567 118.527 187.445 118.065 186.483 117.33C185.521 116.595 184.858 115.666 184.442 114.586C184.027 113.505 183.927 112.349 184.118 111.115C184.333 109.905 184.802 108.828 185.548 107.93C186.295 107.032 187.242 106.38 188.366 105.973C189.514 105.567 190.716 105.47 192.044 105.685C193.347 105.898 194.468 106.36 195.43 107.095C196.369 107.828 197.057 108.736 197.471 109.839C197.887 110.92 197.987 112.076 197.795 113.31C197.604 114.544 197.065 115.571 196.343 116.471ZM195.094 110.811C194.843 110.186 194.396 109.644 193.8 109.212C193.203 108.779 192.453 108.503 191.576 108.36C190.7 108.217 189.907 108.267 189.177 108.484C188.47 108.703 187.874 109.069 187.436 109.609C186.999 110.125 186.697 110.789 186.582 111.534C186.467 112.279 186.521 112.987 186.771 113.635C187.02 114.283 187.468 114.801 188.065 115.234C188.662 115.666 189.411 115.943 190.288 116.086C191.165 116.229 191.958 116.179 192.688 115.961C193.395 115.742 193.992 115.353 194.428 114.837C194.865 114.321 195.167 113.657 195.282 112.912C195.423 112.144 195.368 111.437 195.094 110.811Z" fill="#242F65"/>
<path d="M179.098 130.093L185.124 128.996L185.546 127.917L180.623 126.117L181.558 123.634L194.194 128.257L192.385 132.992C191.821 134.439 191.047 135.405 190.061 135.89C189.051 136.374 187.971 136.407 186.799 135.99C185.838 135.631 185.152 135.077 184.693 134.324C184.234 133.571 184.097 132.648 184.254 131.6L178.027 132.85L179.098 130.093ZM187.281 128.553L186.515 130.599C185.977 132.025 186.353 132.961 187.618 133.43C188.228 133.652 188.778 133.659 189.247 133.427C189.715 133.195 190.102 132.724 190.359 132.01L191.125 129.964L187.281 128.553Z" fill="#242F65"/>
<path d="M167.014 153.32C166.763 152.695 166.706 152.035 166.845 151.291C166.985 150.547 167.338 149.816 167.934 149.05C168.503 148.307 169.159 147.733 169.876 147.351C170.592 146.968 171.321 146.774 172.088 146.769C172.852 146.789 173.557 147.016 174.251 147.43L172.517 149.658C172.031 149.373 171.558 149.276 171.027 149.364C170.519 149.453 170.072 149.733 169.685 150.205C169.349 150.632 169.204 151.07 169.252 151.472C169.301 151.874 169.519 152.238 169.909 152.518C170.229 152.771 170.582 152.884 170.966 152.859C171.327 152.832 171.691 152.735 172.038 152.543C172.384 152.351 172.855 152.072 173.427 151.705C174.15 151.205 174.794 150.841 175.335 150.59C175.876 150.338 176.481 150.231 177.126 150.244C177.772 150.256 178.426 150.527 179.091 151.034C180.008 151.719 180.484 152.591 180.518 153.649C180.551 154.708 180.131 155.765 179.303 156.822C178.449 157.925 177.475 158.622 176.407 158.868C175.34 159.114 174.321 158.939 173.35 158.345L175.111 156.072C175.552 156.308 175.978 156.379 176.437 156.31C176.896 156.242 177.294 155.982 177.631 155.531C177.941 155.149 178.083 154.758 178.059 154.358C178.034 153.957 177.839 153.618 177.426 153.313C177.104 153.083 176.776 152.971 176.439 152.999C176.078 153.026 175.737 153.125 175.391 153.317C175.045 153.509 174.599 153.766 174.051 154.134C173.28 154.631 172.637 154.995 172.094 155.27C171.553 155.521 170.947 155.652 170.301 155.64C169.656 155.627 168.978 155.354 168.289 154.846C167.666 154.46 167.265 153.944 167.014 153.32Z" fill="#242F65"/>
<path d="M161.509 172.942C160.117 173.005 158.777 172.602 157.536 171.734L159.675 169.927C160.373 170.271 161.106 170.406 161.828 170.329C162.575 170.253 163.264 169.916 163.918 169.365C164.448 168.901 164.838 168.359 165.018 167.735C165.198 167.111 165.214 166.43 165.039 165.74C164.84 165.047 164.449 164.368 163.866 163.701C163.281 163.058 162.663 162.577 161.987 162.281C161.31 161.985 160.646 161.901 159.97 162.004C159.294 162.107 158.704 162.38 158.15 162.842C157.496 163.393 157.077 164.027 156.891 164.745C156.706 165.463 156.736 166.169 156.98 166.911L154.84 168.741C154.128 167.409 153.92 166.059 154.19 164.712C154.46 163.364 155.225 162.139 156.508 161.059C157.49 160.221 158.524 159.715 159.66 159.52C160.796 159.325 161.89 159.433 162.99 159.847C164.089 160.284 165.078 160.973 165.929 161.96C166.804 162.949 167.388 164.015 167.658 165.134C167.927 166.253 167.887 167.355 167.514 168.414C167.141 169.474 166.488 170.424 165.506 171.262C164.25 172.296 162.9 172.878 161.509 172.942Z" fill="#242F65"/>
<path d="M140.404 171.987L145.707 175.007L146.746 174.431L144.186 169.92L146.533 168.642L153.084 180.21L148.586 182.66C147.227 183.407 145.993 183.643 144.907 183.395C143.821 183.146 142.975 182.465 142.367 181.398C141.868 180.524 141.704 179.646 141.874 178.787C142.044 177.927 142.521 177.132 143.351 176.426L137.785 173.415L140.404 171.987ZM147.657 176.032L145.729 177.099C144.394 177.823 144.027 178.789 144.701 179.954C145.027 180.513 145.437 180.864 145.932 180.986C146.428 181.107 147.032 181 147.725 180.616L149.677 179.551L147.657 176.032Z" fill="#242F65"/>
<path d="M126.802 190.642C125.645 190.39 124.648 189.841 123.762 189.04C122.876 188.239 122.267 187.195 121.885 185.952C121.503 184.709 121.429 183.507 121.689 182.347C121.948 181.187 122.485 180.183 123.299 179.336C124.114 178.489 125.13 177.888 126.323 177.531C127.54 177.176 128.715 177.124 129.872 177.377C131.03 177.629 132.026 178.178 132.911 179.003C133.796 179.827 134.406 180.848 134.811 182.116C135.215 183.383 135.266 184.561 135.007 185.721C134.748 186.881 134.211 187.884 133.396 188.732C132.581 189.579 131.589 190.181 130.373 190.536C129.133 190.866 127.958 190.918 126.802 190.642ZM131.46 187.073C131.92 186.559 132.22 185.941 132.357 185.22C132.495 184.5 132.421 183.721 132.159 182.884C131.896 182.047 131.506 181.367 130.987 180.822C130.467 180.299 129.867 179.937 129.206 179.783C128.521 179.627 127.826 179.659 127.071 179.875C126.317 180.091 125.698 180.456 125.237 180.971C124.777 181.485 124.478 182.103 124.34 182.823C124.202 183.544 124.276 184.323 124.538 185.16C124.801 185.997 125.192 186.676 125.71 187.222C126.23 187.744 126.83 188.107 127.515 188.263C128.2 188.418 128.895 188.386 129.673 188.171C130.381 187.929 130.977 187.563 131.46 187.073Z" fill="#242F65"/>
<path d="M111.229 182.792L106.739 183.223L106.545 181.213L113.726 180.51L115.06 193.705L112.393 193.979L111.229 182.792Z" fill="#242F65"/>
<path d="M97.7341 183.169L93.2179 182.916L93.335 180.9L100.512 181.325L99.7192 194.572L97.0333 194.421L97.7341 183.169Z" fill="#242F65"/>
<path d="M82.2105 192.53L84.7906 179.516L87.423 180.017L84.8416 193.054L82.2105 192.53Z" fill="#242F65"/>
<path d="M67.4293 174.137L69.9573 175.077L72.3809 185.597L75.5995 177.154L78.1274 178.094L73.3868 190.493L70.8575 189.577L68.4618 178.987L65.2153 187.499L62.6874 186.56L67.4293 174.137Z" fill="#242F65"/>
<path d="M45.9785 175.869C45.525 174.623 45.551 173.356 46.0567 172.068L48.4082 173.585C48.2984 174.237 48.3821 174.852 48.6566 175.478C48.9324 176.081 49.4044 176.601 50.0727 177.037C50.7185 177.449 51.399 177.675 52.0905 177.714C52.7819 177.752 53.4619 177.579 54.105 177.215C54.7482 176.852 55.3069 176.296 55.8036 175.572C56.5886 174.418 56.8687 173.306 56.6679 172.237C56.4671 171.169 55.8248 170.288 54.7172 169.592C53.91 169.077 53.0612 168.865 52.1707 168.956C51.2803 169.047 50.4662 169.472 49.731 170.183L53.5341 172.65L52.4609 174.234L46.7668 170.557L48.2066 168.43C48.8648 167.809 49.6101 167.333 50.4904 167.007C51.3706 166.68 52.3087 166.591 53.3074 166.694C54.3061 166.797 55.2884 167.18 56.2571 167.798C57.3633 168.518 58.1739 169.385 58.7126 170.402C59.2514 171.418 59.4508 172.51 59.3362 173.655C59.2216 174.799 58.797 175.927 58.0638 177.013C57.3293 178.123 56.4442 178.943 55.4072 179.496C54.3703 180.049 53.2796 180.294 52.1112 180.228C50.9429 180.163 49.8175 179.772 48.7112 179.052C47.3509 178.178 46.432 177.116 45.9785 175.869Z" fill="#242F65"/>
<path d="M33.7555 167.784L40.5935 161.234L42.2488 162.783L35.9091 169.808L33.7555 167.784ZM41.5376 159.807L43.4719 157.8L45.5568 159.773L43.6238 161.756L41.5376 159.807Z" fill="#242F65"/>
<path d="M22.1819 151.684C22.2107 150.371 22.6871 149.176 23.6084 148.147L25.2711 150.4C24.927 150.968 24.7947 151.595 24.828 152.255C24.8851 152.916 25.1344 153.564 25.5997 154.201C26.0663 154.814 26.614 155.267 27.2442 155.537C27.8743 155.807 28.5631 155.893 29.2881 155.769C30.013 155.645 30.7489 155.333 31.4732 154.81C32.622 153.981 33.2741 153.055 33.48 151.986C33.6621 150.915 33.387 149.89 32.6111 148.837C32.0335 148.076 31.3216 147.567 30.4489 147.354C29.5761 147.141 28.6618 147.231 27.727 147.672L30.4101 151.298L28.8382 152.408L24.824 146.993L26.9213 145.489C27.7553 145.136 28.6274 144.95 29.5839 144.957C30.5166 144.962 31.4357 145.201 32.3186 145.649C33.2015 146.098 33.9979 146.8 34.6866 147.708C35.4624 148.761 35.9256 149.844 36.0494 151.002C36.1746 152.136 35.9912 153.23 35.4753 154.282C34.9594 155.333 34.1655 156.229 33.0924 156.991C32.0192 157.753 30.8909 158.23 29.7088 158.399C28.5519 158.546 27.4352 158.413 26.3615 157.954C25.2878 157.495 24.375 156.74 23.5991 155.686C22.6502 154.318 22.1755 153.023 22.1819 151.684Z" fill="#242F65"/>
<path d="M16.4227 139.536L19.5947 138.093L17.5938 133.826L19.4631 132.967L21.464 137.235L24.7581 135.751L22.5235 130.978L24.4896 130.101L27.8535 137.262L15.5858 142.8L12.2233 135.616L14.1655 134.738L16.4227 139.536Z" fill="#242F65"/>
<path d="M6.98616 118.991L9.05375 118.449L9.99753 121.973L20.9883 119.159L21.6777 121.708L10.687 124.522L11.6307 128.047L9.56314 128.589L6.98616 118.991Z" fill="#242F65"/>
<path d="M5.04309 98.8412L18.5786 98.8129L18.5926 101.451L5.0571 101.48L5.04309 98.8412Z" fill="#242F65"/>
<path d="M20.539 81.0936L20.0997 83.6989L10.0779 88.0949L19.1352 89.5621L18.6959 92.1674L5.37029 90.0163L5.80956 87.4111L15.903 83.019L6.77408 81.5478L7.21335 78.9425L20.539 81.0936Z" fill="#242F65"/>
<path d="M17.4186 52.8703L19.328 53.7979L17.6528 57.0606L27.8028 62.0372L26.5866 64.4101L16.4366 59.4335L14.7627 62.6728L12.8533 61.7452L17.4186 52.8703Z" fill="#242F65"/>
<path d="M28.4189 38.6527C29.5207 38.2209 30.6523 38.0961 31.8616 38.281C33.0471 38.4646 34.1657 38.9733 35.195 39.7823C36.2244 40.5914 36.9819 41.5497 37.4436 42.656C37.9054 43.7622 38.032 44.8733 37.8683 46.0386C37.6821 47.1792 37.2139 48.2336 36.4146 49.2226C35.6405 50.1894 34.6907 50.8881 33.5889 51.32C32.4872 51.7518 31.3555 51.8766 30.1462 51.6917C28.9608 51.5081 27.8422 50.9994 26.789 50.189C25.7596 49.38 25.0021 48.4216 24.5629 47.3401C24.1011 46.2339 23.9745 45.1228 24.1368 43.9809C24.323 42.8403 24.7926 41.7625 25.5905 40.7969C26.3912 39.7846 27.341 39.0859 28.4189 38.6527ZM26.6842 44.1934C26.5969 44.8697 26.7004 45.5567 27.0212 46.2088C27.3406 46.8843 27.8324 47.4755 28.5416 48.0318C29.2521 48.5647 29.9484 48.9324 30.6821 49.0673C31.4145 49.2256 32.1115 49.1705 32.7717 48.9254C33.4319 48.6804 33.9825 48.2648 34.4724 47.6579C34.9624 47.051 35.2629 46.4101 35.3502 45.7338C35.4375 45.0575 35.3327 44.3939 35.0133 43.7184C34.6938 43.0429 34.202 42.4517 33.4928 41.8954C32.7837 41.3391 32.0861 40.9948 31.3523 40.8599C30.6199 40.7016 29.9229 40.7567 29.2627 41.0018C28.6025 41.2468 28.0281 41.6611 27.5382 42.2679C27.0721 42.8762 26.7715 43.5171 26.6842 44.1934Z" fill="#242F65"/>
<path d="M38.4869 27.7125L43.4694 33.7456C44.1397 34.5582 44.8066 35.0182 45.5178 35.1284C46.2052 35.2372 46.9116 35.0182 47.5882 34.4922C48.2648 33.9661 48.6116 33.3512 48.6526 32.6488C48.6684 31.9685 48.3544 31.1992 47.7066 30.4114L42.7241 24.3783L44.8056 22.7326L49.7881 28.7657C50.5694 29.7254 51.0645 30.6692 51.2245 31.6177C51.4083 32.5676 51.3087 33.4547 50.9257 34.279C50.5427 35.1033 49.9492 35.8454 49.1466 36.4819C47.8916 37.4924 46.5754 37.9123 45.2204 37.7662C43.8654 37.6202 42.595 36.8446 41.4105 35.4161L36.4279 29.3829L38.4869 27.7125Z" fill="#242F65"/>
<path d="M62.3398 14.0638C63.7118 14.3283 64.9134 15.0531 65.8996 16.1887L63.3632 17.4332C62.7706 16.9303 62.1181 16.6355 61.3592 16.5227C60.6228 16.4346 59.8727 16.5807 59.0852 16.9596C58.4448 17.2763 57.9644 17.7193 57.5965 18.286C57.2524 18.8541 57.0949 19.5031 57.1016 20.2082C57.107 20.9367 57.3269 21.6772 57.7349 22.4752C58.1203 23.2484 58.6107 23.8631 59.2074 24.2957C59.7803 24.727 60.4117 24.9737 61.1018 25.0356C61.768 25.0963 62.4214 24.9683 63.0618 24.6517C63.8255 24.2714 64.4053 23.7635 64.7535 23.1251C65.1255 22.4881 65.2619 21.791 65.1877 21.0117L67.7241 19.7672C68.0686 21.2429 67.9656 22.5996 67.3434 23.8334C66.7438 25.092 65.6809 26.0898 64.1787 26.8282C63.0212 27.3979 61.8828 27.6398 60.7384 27.5759C59.5939 27.5121 58.5401 27.1244 57.598 26.4611C56.6335 25.773 55.8734 24.8614 55.2713 23.7003C54.6707 22.5157 54.3786 21.3718 54.3992 20.1984C54.4184 19.0484 54.7197 17.9846 55.3479 17.0565C55.9537 16.1037 56.8584 15.3554 58.0159 14.7858C59.5195 14.024 60.9454 13.7746 62.3398 14.0638Z" fill="#242F65"/>
<path d="M83.1643 6.26233L86.4804 19.1118L83.8597 19.7644L82.4154 14.1857L76.8097 15.588L78.254 21.1667L75.6347 21.7959L72.3186 8.94638L74.9393 8.2938L76.2863 13.4911L81.8668 12.1109L80.5198 6.91358L83.1643 6.26233Z" fill="#242F65"/>
</svg>
